<svg width="1459" height="1678" viewBox="0 0 1459 1678" fill="currentColor" xmlns="http://www.w3.org/2000/svg">
<path d="M0 0H218.85V14.5913H423.11V0H1429.82V14.5913H1444.41V43.7739H1459V1108.94H1444.41V1327.81H1459V1663.41H1429.82V1678H1021.3V1663.41H641.96V1678H335.57V1663.41H145.9V1678H0V1590.45H14.59V1561.27H0V0ZM744.09 14.5913H569.01V29.1826H452.29V43.7739H189.67V29.1826H29.18V423.148H43.77V452.33H29.18V1546.68H43.77V1619.63H29.18V1663.41H58.36V1648.82H116.72V1634.23H320.98V1619.63H335.57V1605.04H350.16V1590.45H364.75V1546.68H379.34V1532.09H393.93V1546.68H408.52V1575.86H466.88V1605.04H481.47V1634.23H496.06V1648.82H525.24V1634.23H948.35V1619.63H875.4V1590.45H889.99V1575.86H875.4V1561.27H904.58V1546.68H933.76V1561.27H948.35V1590.45H962.94V1605.04H992.12V1619.63H1006.71V1634.23H1094.25V1648.82H1415.23V1634.23H1429.82V1546.68H1415.23V1079.76H1429.82V58.3652H1415.23V29.1826H1400.64V14.5913H1021.3V29.1826H744.09V14.5913ZM700.32 29.1826H714.91V43.7739H802.45V58.3652H875.4V72.9565H889.99V87.5478H904.58V72.9565H933.76V87.5478H962.94V116.73H977.53V131.322H1035.89V145.913H1050.48V175.096H1065.07V189.687H1079.66V204.278H1094.25V218.87H1108.84V233.461H1123.43V262.643H1152.61V291.826H1167.2V321.009H1181.79V364.783H1196.38V437.739H1181.79V452.33H1196.38V510.696H1181.79V569.061H1167.2V598.243H1152.61V642.017H1138.02V685.791H1108.84V714.974H1094.25V729.565H1079.66V744.157H1065.07V787.93H1079.66V802.522H1094.25V817.113H1079.66V831.704H1065.07V802.522H1050.48V831.704H1035.89V598.243H1006.71V569.061H992.12V539.878H962.94V525.287H875.4V510.696H802.45V539.878H773.27V525.287H729.5V510.696H700.32V496.104H685.73V481.513H671.14V466.922H656.55V481.513H641.96V466.922H627.37V452.33H598.19V437.739H583.6V452.33H525.24V423.148H496.06V408.557H437.7V452.33H423.11V510.696H437.7V525.287H423.11V554.47H437.7V539.878H452.29V569.061H510.65V583.652H539.83V598.243H569.01V612.835H598.19V627.426H612.78V642.017H627.37V700.383H612.78V714.974H598.19V729.565H583.6V714.974H554.42V700.383H569.01V671.2H554.42V685.791H539.83V700.383H496.06V685.791H466.88V700.383H481.47V714.974H466.88V729.565H452.29V714.974H423.11V685.791H408.52V671.2H393.93V685.791H379.34V714.974H364.75V671.2H350.16V860.887H364.75V846.296H379.34V860.887H364.75V875.478H393.93V919.252H379.34V933.844H364.75V890.07H335.57V831.704H320.98V817.113H306.39V787.93H320.98V758.748H306.39V744.157H320.98V627.426H335.57V612.835H320.98V598.243H335.57V583.652H350.16V466.922H320.98V393.965H306.39V364.783H320.98V350.191H335.57V335.6H350.16V321.009H335.57V306.417H350.16V262.643H335.57V248.052H350.16V262.643H379.34V233.461H393.93V218.87H408.52V204.278H423.11V189.687H437.7V175.096H452.29V160.504H481.47V145.913H496.06V131.322H510.65V116.73H525.24V102.139H554.42V87.5478H583.6V72.9565H627.37V58.3652H641.96V43.7739H700.32V29.1826ZM335.57 364.783H320.98V379.374H335.57V364.783ZM817.04 525.287H831.63V539.878H817.04V525.287ZM379.34 598.243H364.75V612.835H379.34V598.243ZM496.06 612.835H452.29V627.426H437.7V642.017H496.06V612.835ZM714.91 612.835H729.5V627.426H889.99V642.017H904.58V627.426H919.17V642.017H948.35V656.609H962.94V685.791H977.53V700.383H948.35V714.974H933.76V700.383H948.35V685.791H889.99V700.383H919.17V729.565H904.58V744.157H889.99V758.748H875.4V729.565H860.81V744.157H802.45V714.974H773.27V729.565H758.68V700.383H714.91V671.2H700.32V627.426H714.91V612.835ZM729.5 627.426H714.91V656.609H729.5V627.426ZM889.99 671.2H860.81V685.791H831.63V700.383H875.4V685.791H889.99V671.2ZM598.19 685.791H583.6V714.974H598.19V685.791ZM889.99 700.383H875.4V714.974H889.99V700.383ZM904.58 714.974H889.99V729.565H904.58V714.974ZM496.06 714.974H525.24V729.565H496.06V714.974ZM962.94 714.974H977.53V729.565H962.94V714.974ZM1138.02 714.974H1167.2V729.565H1138.02V744.157H1123.43V729.565H1138.02V714.974ZM539.83 860.887H554.42V875.478H539.83V860.887ZM539.83 890.07H554.42V904.661H569.01V890.07H583.6V904.661H598.19V919.252H627.37V933.844H671.14V919.252H714.91V948.435H671.14V963.026H700.32V992.209H744.09V1006.8H758.68V992.209H773.27V1006.8H817.04V1035.98H831.63V1065.17H817.04V1094.35H787.86V1079.76H714.91V1065.17H598.19V1079.76H569.01V1094.35H583.6V1108.94H569.01V1094.35H539.83V1079.76H525.24V1065.17H496.06V1094.35H525.24V1108.94H452.29V1094.35H423.11V1138.12H437.7V1123.53H452.29V1152.71H466.88V1138.12H496.06V1152.71H466.88V1181.9H481.47V1211.08H510.65V1225.67H569.01V1254.85H598.19V1269.44H627.37V1254.85H641.96V1269.44H671.14V1254.85H685.73V1225.67H700.32V1254.85H744.09V1240.26H758.68V1211.08H773.27V1225.67H802.45V1211.08H831.63V1225.67H846.22V1181.9H860.81V1167.3H875.4V1152.71H904.58V1138.12H889.99V1123.53H904.58V1138.12H919.17V1123.53H933.76V1152.71H948.35V1167.3H919.17V1196.49H904.58V1225.67H889.99V1240.26H860.81V1284.03H831.63V1313.22H817.04V1327.81H787.86V1313.22H773.27V1342.4H729.5V1356.99H714.91V1342.4H685.73V1356.99H671.14V1371.58H656.55V1356.99H641.96V1371.58H627.37V1386.17H612.78V1371.58H598.19V1400.77H583.6V1415.36H598.19V1429.95H612.78V1444.54H583.6V1459.13H554.42V1473.72H525.24V1459.13H510.65V1488.31H525.24V1575.86H539.83V1561.27H554.42V1590.45H539.83V1619.63H525.24V1605.04H510.65V1590.45H496.06V1575.86H481.47V1546.68H466.88V1532.09H452.29V1488.31H437.7V1415.36H423.11V1386.17H408.52V1342.4H393.93V1254.85H408.52V1225.67H423.11V1211.08H437.7V1167.3H423.11V1152.71H408.52V1108.94H393.93V1050.57H379.34V977.617H364.75V948.435H379.34V963.026H393.93V977.617H408.52V1006.8H423.11V1050.57H437.7V1021.39H452.29V992.209H481.47V977.617H496.06V963.026H510.65V977.617H525.24V963.026H539.83V890.07ZM1050.48 977.617H1065.07V992.209H1094.25V1006.8H1079.66V1021.39H1065.07V992.209H1050.48V977.617ZM598.19 992.209H583.6V1006.8H598.19V992.209ZM671.14 1006.8H656.55V1021.39H612.78V1035.98H641.96V1050.57H685.73V1035.98H671.14V1006.8ZM700.32 1021.39H685.73V1035.98H700.32V1021.39ZM773.27 1021.39H758.68V1035.98H773.27V1021.39ZM919.17 1021.39H933.76V1035.98H919.17V1021.39ZM758.68 1035.98H744.09V1050.57H758.68V1035.98ZM802.45 1035.98H787.86V1050.57H802.45V1035.98ZM962.94 1050.57H977.53V1065.17H962.94V1050.57ZM466.88 1065.17H452.29V1094.35H466.88V1065.17ZM933.76 1079.76H992.12V1094.35H962.94V1123.53H948.35V1094.35H933.76V1079.76ZM846.22 1108.94H860.81V1123.53H846.22V1108.94ZM525.24 1123.53H539.83V1138.12H525.24V1123.53ZM554.42 1123.53H583.6V1138.12H554.42V1123.53ZM598.19 1123.53H641.96V1138.12H656.55V1152.71H641.96V1167.3H612.78V1138.12H598.19V1123.53ZM685.73 1123.53H700.32V1138.12H685.73V1123.53ZM889.99 1167.3H875.4V1181.9H889.99V1167.3ZM583.6 1181.9H598.19V1196.49H583.6V1181.9ZM714.91 1181.9H729.5V1196.49H714.91V1181.9ZM817.04 1181.9H831.63V1196.49H817.04V1181.9ZM525.24 1196.49H539.83V1211.08H525.24V1196.49ZM700.32 1254.85H685.73V1284.03H700.32V1254.85ZM729.5 1327.81H714.91V1342.4H729.5V1327.81ZM948.35 1356.99H962.94V1371.58H948.35V1356.99ZM933.76 1386.17H948.35V1400.77H933.76V1386.17ZM919.17 1415.36H933.76V1444.54H919.17V1415.36ZM539.83 1444.54H525.24V1459.13H539.83V1444.54ZM904.58 1459.13H919.17V1473.72H904.58V1459.13ZM583.6 1502.9H598.19V1517.5H583.6V1502.9ZM466.88 1605.04H452.29V1634.23H466.88V1605.04ZM481.47 1634.23H466.88V1648.82H481.47V1634.23Z" fill="#09090B" fill-opacity="0.607843"/>
</svg>
